<svg xmlns="http://www.w3.org/2000/svg" viewBox="0 0 1200 675" width="100%" height="100%">
  <rect width="1200" height="675" fill="#0f172a"/>
  <!-- Top Navigation Bar -->
  <rect x="0" y="0" width="1200" height="60" fill="#1e293b"/>
  <circle cx="40" cy="30" r="14" fill="#f59e0b"/>
  <text x="36" y="35" font-family="sans-serif" font-size="14" font-weight="bold" fill="#0f172a">🍍</text>
  <text x="65" y="36" font-family="sans-serif" font-size="18" font-weight="bold" fill="#ffffff">Pineapple OS — Tableau de Bord</text>
  <rect x="1020" y="16" width="140" height="28" rx="6" fill="#d97706"/>
  <text x="1035" y="34" font-family="sans-serif" font-size="12" font-weight="bold" fill="#0f172a">Établissement Démo</text>

  <!-- Sidebar -->
  <rect x="0" y="60" width="220" height="615" fill="#111827"/>
  <rect x="15" y="90" width="190" height="36" rx="8" fill="#d97706" fill-opacity="0.2"/>
  <text x="35" y="113" font-family="sans-serif" font-size="14" font-weight="bold" fill="#f59e0b">📊 Vue d'ensemble</text>
  <text x="35" y="160" font-family="sans-serif" font-size="14" fill="#9ca3af">🎓 Registre Scolarité</text>
  <text x="35" y="200" font-family="sans-serif" font-size="14" fill="#9ca3af">📅 Emplois du temps</text>
  <text x="35" y="240" font-family="sans-serif" font-size="14" fill="#9ca3af">🏫 Salles & Amphis</text>
  <text x="35" y="280" font-family="sans-serif" font-size="14" fill="#9ca3af">🗳️ Espace Délégués</text>

  <!-- Main Content Area -->
  <rect x="250" y="90" width="280" height="120" rx="12" fill="#1e293b" stroke="#334155" stroke-width="2"/>
  <text x="270" y="125" font-family="sans-serif" font-size="14" fill="#94a3b8">Effectif Total Inscrit</text>
  <text x="270" y="170" font-family="sans-serif" font-size="36" font-weight="bold" fill="#ffffff">1 240</text>
  <text x="370" y="170" font-family="sans-serif" font-size="14" fill="#10b981">↑ 100% Vérifié</text>

  <rect x="560" y="90" width="280" height="120" rx="12" fill="#1e293b" stroke="#334155" stroke-width="2"/>
  <text x="580" y="125" font-family="sans-serif" font-size="14" fill="#94a3b8">Occupation Amphis</text>
  <text x="580" y="170" font-family="sans-serif" font-size="36" font-weight="bold" fill="#f59e0b">87.5%</text>
  <text x="700" y="170" font-family="sans-serif" font-size="14" fill="#f59e0b">7 / 8 Amphis</text>

  <rect x="870" y="90" width="280" height="120" rx="12" fill="#1e293b" stroke="#334155" stroke-width="2"/>
  <text x="890" y="125" font-family="sans-serif" font-size="14" fill="#94a3b8">Signalements Délégués</text>
  <text x="890" y="170" font-family="sans-serif" font-size="36" font-weight="bold" fill="#10b981">12 Actifs</text>
  <text x="1000" y="170" font-family="sans-serif" font-size="14" fill="#10b981">✓ 0 collision</text>

  <!-- Large Chart Area -->
  <rect x="250" y="240" width="900" height="390" rx="12" fill="#1e293b" stroke="#334155" stroke-width="2"/>
  <text x="280" y="280" font-family="sans-serif" font-size="18" font-weight="bold" fill="#ffffff">Occupation des Salles — Lundi 8 Octobre 2026</text>
  
  <!-- Grid bars -->
  <rect x="280" y="320" width="120" height="240" rx="6" fill="#334155"/>
  <rect x="280" y="380" width="120" height="180" rx="6" fill="#d97706"/>
  <text x="320" y="585" font-family="sans-serif" font-size="12" fill="#94a3b8">Amphi A</text>

  <rect x="440" y="320" width="120" height="240" rx="6" fill="#334155"/>
  <rect x="440" y="340" width="120" height="220" rx="6" fill="#d97706"/>
  <text x="480" y="585" font-family="sans-serif" font-size="12" fill="#94a3b8">Amphi B</text>

  <rect x="600" y="320" width="120" height="240" rx="6" fill="#334155"/>
  <rect x="600" y="420" width="120" height="140" rx="6" fill="#10b981"/>
  <text x="640" y="585" font-family="sans-serif" font-size="12" fill="#94a3b8">Amphi C</text>

  <rect x="760" y="320" width="120" height="240" rx="6" fill="#334155"/>
  <rect x="760" y="360" width="120" height="200" rx="6" fill="#d97706"/>
  <text x="800" y="585" font-family="sans-serif" font-size="12" fill="#94a3b8">Salle 101</text>

  <rect x="920" y="320" width="120" height="240" rx="6" fill="#334155"/>
  <rect x="920" y="400" width="120" height="160" rx="6" fill="#d97706"/>
  <text x="960" y="585" font-family="sans-serif" font-size="12" fill="#94a3b8">Salle 102</text>
</svg>
